<svg width="18" height="20" viewBox="0 0 18 20" fill="none" xmlns="http://www.w3.org/2000/svg">
<path d="M2.95558 18.0969L2.95537 18.0947L1.82926 6.29004H16.1695L15.0434 18.0947L15.0433 18.0955C15.0064 18.4889 14.6734 18.8002 14.2612 18.8002H3.73754C3.31913 18.8002 2.99252 18.5033 2.95558 18.0969Z" fill="white" stroke="white"/>
<path d="M11.0801 1.93002V2.43002H11.5801H16.7201C17.155 2.43002 17.5 2.77501 17.5 3.20993C17.5 3.64485 17.155 3.98984 16.7201 3.98984H1.27991C0.844991 3.98984 0.5 3.64485 0.5 3.20993C0.5 2.77501 0.844991 2.43002 1.27991 2.43002H6.44018H6.94018V1.93002V1.27991C6.94018 0.844991 7.28517 0.5 7.72009 0.5H10.3002C10.7351 0.5 11.0801 0.844991 11.0801 1.27991V1.93002Z" fill="white" stroke="white"/>
</svg>
